<svg width="24" height="24" viewBox="0 0 24 24" fill="none" xmlns="http://www.w3.org/2000/svg">
<path d="M20.6625 3.3375C20.2125 2.8875 19.5375 2.8875 19.0875 3.3375L12 10.425L4.9125 3.3375C4.4625 2.8875 3.7875 2.8875 3.3375 3.3375C2.8875 3.7875 2.8875 4.4625 3.3375 4.9125L10.425 12L3.3375 19.0875C2.8875 19.5375 2.8875 20.2125 3.3375 20.6625C3.5625 20.8875 3.7875 21 4.125 21C4.4625 21 4.6875 20.8875 4.9125 20.6625L12 13.575L19.0875 20.6625C19.3125 20.8875 19.5375 21 19.875 21C20.2125 21 20.4375 20.8875 20.6625 20.6625C21.1125 20.2125 21.1125 19.5375 20.6625 19.0875L13.575 12L20.6625 4.9125C21.1125 4.4625 21.1125 3.7875 20.6625 3.3375Z" fill="#49388C"/>
<path d="M20.6625 3.3375C20.2125 2.8875 19.5375 2.8875 19.0875 3.3375L12 10.425L4.9125 3.3375C4.4625 2.8875 3.7875 2.8875 3.3375 3.3375C2.8875 3.7875 2.8875 4.4625 3.3375 4.9125L10.425 12L3.3375 19.0875C2.8875 19.5375 2.8875 20.2125 3.3375 20.6625C3.5625 20.8875 3.7875 21 4.125 21C4.4625 21 4.6875 20.8875 4.9125 20.6625L12 13.575L19.0875 20.6625C19.3125 20.8875 19.5375 21 19.875 21C20.2125 21 20.4375 20.8875 20.6625 20.6625C21.1125 20.2125 21.1125 19.5375 20.6625 19.0875L13.575 12L20.6625 4.9125C21.1125 4.4625 21.1125 3.7875 20.6625 3.3375Z" fill="white"/>
</svg>
