<svg width="27" height="31" viewBox="0 0 27 31" fill="none" xmlns="http://www.w3.org/2000/svg">
<path d="M13.4999 12.0535C11.6388 12.0535 10.1243 13.5675 10.1243 15.4285C10.1243 17.2896 11.6388 18.8035 13.4999 18.8035C15.361 18.8035 16.8755 17.2896 16.8755 15.4285C16.8755 13.5675 15.361 12.0535 13.4999 12.0535ZM13.4999 16.8749C12.7008 16.8749 12.0535 16.2271 12.0535 15.4285C12.0535 14.6294 12.7014 13.9821 13.4999 13.9821C14.2985 13.9821 14.9463 14.6294 14.9463 15.4285C14.9463 16.2271 14.2991 16.8749 13.4999 16.8749ZM24.8736 15.4285C25.8108 14.2069 26.4834 12.9804 26.7968 11.8125C27.1602 10.4498 27.0342 9.19564 26.4315 8.18495C25.3329 6.34679 22.7938 5.59585 19.59 5.86887C18.1887 2.27932 16.004 0 13.4999 0C10.9958 0 8.81109 2.27872 7.41047 5.86826C4.20604 5.59525 1.66756 6.34619 0.570089 8.18555C-0.0343956 9.19564 -0.160355 10.4498 0.203059 11.8125C0.516451 12.9804 1.18904 14.2069 2.1262 15.4285C1.18904 16.6501 0.516451 17.8766 0.203059 19.0446C-0.160355 20.4072 -0.0343956 21.6614 0.568281 22.6721C1.52352 24.2692 3.55756 25.0539 6.17619 25.0539C6.55949 25.0539 6.9898 24.9846 7.39661 24.9508C8.79663 28.5621 10.9874 30.857 13.4999 30.857C16.0125 30.857 18.2032 28.5621 19.6032 24.9508C20.01 24.9846 20.4403 25.0539 20.8236 25.0539C23.4399 25.0539 25.4763 24.2692 26.4297 22.6721C27.0342 21.6614 27.1608 20.4072 26.7968 19.0446C26.4834 17.8766 25.8108 16.6501 24.8736 15.4285ZM2.06774 11.3134C1.83631 10.4546 1.89055 9.73443 2.22624 9.17394C2.78191 8.2416 4.1982 7.72873 6.15208 7.72873C6.35277 7.72873 6.56973 7.745 6.78127 7.75585C6.44679 8.94432 6.19246 10.2371 6.02371 11.6057C5.05762 12.3531 4.1753 13.1293 3.41291 13.923C2.76685 13.025 2.28953 12.1403 2.06774 11.3134ZM5.81217 16.5573C5.39934 16.1837 5.01543 15.8076 4.65925 15.4285C5.01483 15.0494 5.39934 14.6734 5.81217 14.2997C5.79951 14.674 5.78445 15.0464 5.78445 15.4285C5.78445 15.8106 5.79891 16.1831 5.81217 16.5573ZM2.22444 21.6831C1.89116 21.1226 1.83631 20.4024 2.06834 19.5436C2.29013 18.7167 2.76745 17.832 3.41291 16.934C4.1753 17.7277 5.05822 18.504 6.02371 19.2513C6.19246 20.6218 6.44739 21.9151 6.78188 23.1048C4.50858 23.2223 2.83977 22.7119 2.22444 21.6831ZM18.7854 10.0683C18.2803 9.74769 17.7669 9.43129 17.2293 9.13176C16.8418 8.9154 16.4542 8.71531 16.0673 8.52004C16.8351 8.28982 17.5692 8.11745 18.2713 7.98968C18.4765 8.67376 18.6481 9.36747 18.7854 10.0683ZM13.4999 1.92857C14.9506 1.92857 16.4844 3.49733 17.6102 6.14549C16.3018 6.40525 14.9174 6.81808 13.5005 7.37194C12.083 6.81808 10.6987 6.40404 9.38966 6.14429C10.5155 3.49673 12.0493 1.92857 13.4999 1.92857ZM8.72852 7.98968C9.43064 8.11745 10.1647 8.28921 10.9319 8.52004C10.545 8.71531 10.1575 8.9154 9.77055 9.13176C9.23296 9.43129 8.71948 9.74769 8.21444 10.0683C8.35178 9.36747 8.52334 8.67376 8.72852 7.98968ZM8.21444 20.7887C8.71948 21.1094 9.23296 21.4258 9.77055 21.7253C10.1755 21.9513 10.5769 22.1164 10.9813 22.3195C10.1978 22.5564 9.4451 22.739 8.72913 22.8698C8.53386 22.2171 8.35848 21.5258 8.21444 20.7887ZM13.4999 28.9285C12.0438 28.9285 10.5034 27.3477 9.3764 24.6808C10.6914 24.4223 12.0746 24.0124 13.4999 23.4562C14.9252 24.013 16.3084 24.4223 17.6234 24.6808C16.4964 27.3477 14.956 28.9285 13.4999 28.9285ZM18.2713 22.8692C17.5559 22.739 16.8038 22.5564 16.0203 22.3195C16.4241 22.1164 16.8255 21.9513 17.2299 21.7259C17.7675 21.4264 18.2809 21.11 18.786 20.7893C18.6413 21.5252 18.4666 22.2159 18.2713 22.8692ZM19.1566 18.2051C18.2671 18.8511 17.313 19.4725 16.2915 20.042C15.3453 20.57 14.413 21.0177 13.5011 21.4041C12.5887 21.0177 11.6557 20.57 10.7083 20.042C9.68678 19.4719 8.73274 18.8511 7.84319 18.2051C7.75942 17.3179 7.71301 16.3922 7.71301 15.4285C7.71301 14.4648 7.75942 13.5391 7.84319 12.652C8.73274 12.0059 9.68678 11.3846 10.7083 10.815C11.6539 10.2877 12.5881 9.83387 13.4993 9.44756C14.4112 9.83387 15.3453 10.2877 16.2915 10.815C17.313 11.3852 18.2671 12.0059 19.1566 12.652C19.2398 13.5391 19.2868 14.4648 19.2868 15.4285C19.2868 16.3922 19.2398 17.3179 19.1566 18.2051ZM20.8484 7.72812C22.8016 7.72812 24.2185 8.2416 24.776 9.17334C25.1093 9.73383 25.1641 10.454 24.9321 11.3128C24.7103 12.1397 24.233 13.0244 23.5875 13.9224C22.8251 13.1287 21.9422 12.3525 20.9767 11.6051C20.808 10.2359 20.5536 8.94372 20.2192 7.75524C20.4307 7.74439 20.6477 7.72812 20.8484 7.72812ZM21.1877 14.2997C21.6005 14.6734 21.9844 15.0494 22.3406 15.4285C21.9844 15.8076 21.6005 16.1837 21.1877 16.5573C21.2003 16.1831 21.2154 15.8106 21.2154 15.4285C21.2154 15.0464 21.2009 14.674 21.1877 14.2997ZM24.7736 21.6831C24.1613 22.7119 22.4925 23.2223 20.218 23.1036C20.553 21.9139 20.8074 20.6212 20.9761 19.2513C21.9422 18.504 22.8245 17.7277 23.5869 16.934C24.2324 17.832 24.7103 18.7167 24.9315 19.5436C25.1635 20.4024 25.1093 21.1226 24.7736 21.6831Z" fill="#F61067"/>
</svg>
