<svg id="Layer_1" enable-background="new 0 0 512 512" height="20" viewBox="0 0 512 512" width="20" xmlns="http://www.w3.org/2000/svg"><g><path d="m256 16c-132.55 0-240 107.45-240 240s107.45 240 240 240 240-107.45 240-240-107.45-240-240-240zm48 288-160 64 64-160 160-64z" fill="#e2e0e0"/><path d="m383.33 189.66-53.102 132.769c-1.423 3.558-4.242 6.377-7.8 7.8l-132.768 53.101c-8.16 3.27-16.26-4.83-12.99-12.99l7.33-18.34 120-48 48-120 18.34-7.33c8.16-3.27 16.26 4.83 12.99 12.99z" fill="#cecccc"/><path d="m304 304-160 64 64-160z" fill="#acebe2"/><path d="m368 144-64 160-96-96z" fill="#f79caf"/><path d="m256 16c-6.73 0-13.41.28-20 .83 123.19 10.15 220 113.35 220 239.17s-96.81 229.02-220 239.17c6.59.55 13.27.83 20 .83 132.55 0 240-107.45 240-240s-107.45-240-240-240z" fill="#cecccc"/><path d="m379.314 132.686c-4.526-4.525-11.313-5.918-17.256-3.542l-160 64c-4.065 1.626-7.287 4.848-8.913 8.913l-64 160c-2.377 5.943-.984 12.73 3.542 17.256 3.059 3.059 7.151 4.687 11.317 4.687 1.998 0 4.013-.375 5.939-1.145l160-64c4.065-1.626 7.287-4.848 8.913-8.913l64-160c2.377-5.942.983-12.73-3.542-17.256zm-165.47 103.785 61.685 61.685-102.808 41.124zm84.312 39.058-61.685-61.685 102.808-41.124z"/><g><path d="m256 512c-68.38 0-132.667-26.628-181.02-74.98s-74.98-112.64-74.98-181.02 26.628-132.667 74.98-181.02 112.64-74.98 181.02-74.98 132.667 26.628 181.02 74.98 74.98 112.64 74.98 181.02-26.628 132.667-74.98 181.02-112.64 74.98-181.02 74.98zm0-480c-123.514 0-224 100.486-224 224s100.486 224 224 224 224-100.486 224-224-100.486-224-224-224z"/></g></g></svg>