<?xml version="1.0" encoding="iso-8859-1"?>
<!-- Generator: Adobe Illustrator 19.0.0, SVG Export Plug-In . SVG Version: 6.00 Build 0)  -->
<svg version="1.1" id="Capa_1" xmlns="http://www.w3.org/2000/svg" xmlns:xlink="http://www.w3.org/1999/xlink" x="0px" y="0px"
	 viewBox="0 0 512.009 512.009" style="enable-background:new 0 0 512.009 512.009;" xml:space="preserve">
<g>
	<path style="fill:#4482C3;" d="M256.004,176.552h-97.103c-48.675,0-88.276-39.601-88.276-88.276
		c0-34.066,27.719-61.793,61.793-61.793h17.655c57.291,0,108.482,123.842,114.123,137.966c1.086,2.719,0.759,5.8-0.883,8.227
		S258.935,176.552,256.004,176.552z M132.418,44.138c-24.338,0-44.138,19.8-44.138,44.138c0,38.938,31.682,70.621,70.621,70.621
		h83.783c-17.946-40.554-57.944-114.759-92.61-114.759H132.418z"/>
	<path style="fill:#4482C3;" d="M353.108,176.552h-97.103c-2.931,0-5.667-1.457-7.309-3.875s-1.977-5.508-0.883-8.227
		c5.641-14.124,56.832-137.966,114.123-137.966h17.655c34.074,0,61.793,27.727,61.793,61.793
		C441.384,136.951,401.783,176.552,353.108,176.552z M269.316,158.897h83.791c38.938,0,70.621-31.682,70.621-70.621
		c0-24.338-19.8-44.138-44.138-44.138h-17.655C327.234,44.138,287.254,118.343,269.316,158.897z"/>
	<path style="fill:#4482C3;" d="M256.004,176.552c-3.611,0-6.859-2.198-8.201-5.544c-0.291-0.724-29.396-72.792-64.75-108.429
		c-2.375-2.392-3.178-5.923-2.074-9.101C192.057,21.495,222.204,0,256.004,0s63.947,21.495,75.026,53.478
		c1.103,3.178,0.3,6.718-2.074,9.101c-35.399,35.681-64.468,107.697-64.75,108.42C262.863,174.354,259.615,176.552,256.004,176.552z
		 M199.596,54.343c24.779,26.942,45.515,67.619,56.408,91.286c10.893-23.667,31.629-64.344,56.408-91.286
		c-9.852-22.148-31.894-36.687-56.408-36.687C231.49,17.655,209.448,32.194,199.596,54.343z"/>
</g>
<rect x="44.142" y="240.287" style="fill:#E64C3C;" width="423.724" height="271.722"/>
<rect x="26.487" y="158.897" style="fill:#C03A2B;" width="459.034" height="88.276"/>
<rect x="203.039" y="158.897" style="fill:#D5AA18;" width="105.931" height="88.276"/>
<rect x="203.039" y="247.172" style="fill:#F0C419;" width="105.931" height="264.828"/>
<g>
	<path style="fill:#C03A2B;" d="M167.729,485.517H79.453c-4.873,0-8.828-3.946-8.828-8.828v-88.276c0-4.882,3.955-8.828,8.828-8.828
		c4.873,0,8.828,3.946,8.828,8.828v79.448h79.448c4.873,0,8.828,3.946,8.828,8.828C176.556,481.571,172.601,485.517,167.729,485.517
		z"/>
	<path style="fill:#C03A2B;" d="M432.556,485.517H344.28c-4.873,0-8.828-3.946-8.828-8.828c0-4.882,3.955-8.828,8.828-8.828h79.448
		v-79.448c0-4.882,3.955-8.828,8.828-8.828c4.873,0,8.828,3.946,8.828,8.828v88.276
		C441.384,481.571,437.429,485.517,432.556,485.517z"/>
</g>
<g>
	<rect x="44.142" y="247.172" style="fill:#AA2B22;" width="158.897" height="17.655"/>
	<rect x="308.97" y="247.172" style="fill:#AA2B22;" width="158.897" height="17.655"/>
</g>
<rect x="203.039" y="247.172" style="fill:#BF9518;" width="105.931" height="17.655"/>
<g>
</g>
<g>
</g>
<g>
</g>
<g>
</g>
<g>
</g>
<g>
</g>
<g>
</g>
<g>
</g>
<g>
</g>
<g>
</g>
<g>
</g>
<g>
</g>
<g>
</g>
<g>
</g>
<g>
</g>
</svg>
