<svg width="26" height="26" viewBox="0 0 26 26" fill="none" xmlns="http://www.w3.org/2000/svg">
<path fill-rule="evenodd" clip-rule="evenodd" d="M20.5834 22.6297C20.5834 23.2942 20.0645 23.8334 19.4227 23.8334C18.7808 23.8334 18.2619 23.2942 18.2619 22.6297C18.2619 19.3111 15.6585 16.6112 12.4584 16.6112C9.25829 16.6112 6.6548 19.3111 6.6548 22.6297C6.6548 23.2942 6.13596 23.8334 5.49409 23.8334C4.85221 23.8334 4.33337 23.2942 4.33337 22.6297C4.33337 17.9834 7.97918 14.2038 12.4584 14.2038C16.9376 14.2038 20.5834 17.9834 20.5834 22.6297ZM12.4584 4.57416C13.7386 4.57416 14.7798 5.65388 14.7798 6.98156C14.7798 8.30925 13.7386 9.38897 12.4584 9.38897C11.1781 9.38897 10.1369 8.30925 10.1369 6.98156C10.1369 5.65388 11.1781 4.57416 12.4584 4.57416ZM12.4584 11.7964C15.0189 11.7964 17.1012 9.63693 17.1012 6.98156C17.1012 4.32619 15.0189 2.16675 12.4584 2.16675C9.89784 2.16675 7.81552 4.32619 7.81552 6.98156C7.81552 9.63693 9.89784 11.7964 12.4584 11.7964Z" fill="black"/>
</svg>
