<svg width="26" height="26" viewBox="0 0 26 26" fill="none" xmlns="http://www.w3.org/2000/svg">
<g opacity="0.2">
<path fill-rule="evenodd" clip-rule="evenodd" d="M4.76975 12.5908C5.97875 13.0057 6.94184 14.0176 7.34484 15.3002L7.38817 15.4302C7.84967 16.7909 7.66225 18.2556 6.88875 19.3541C6.74792 19.5534 6.77934 19.7917 6.92775 19.9044L9.17242 21.6096C9.2515 21.6692 9.32842 21.6692 9.37609 21.6637C9.43026 21.6551 9.50934 21.6258 9.57326 21.5348L9.8235 21.1795C10.5699 20.1211 11.7724 19.4678 13.0421 19.431C14.4678 19.4017 15.7483 20.055 16.5456 21.2066L16.6734 21.3918C16.7373 21.4828 16.8153 21.5132 16.8706 21.5218C16.9183 21.5316 16.9963 21.5283 17.0743 21.4677L19.307 19.7831C19.463 19.6661 19.4977 19.4158 19.3818 19.2479L19.1001 18.8417C18.3743 17.793 18.1587 16.4323 18.5238 15.2027C18.9203 13.8637 19.9288 12.8042 21.2234 12.3709L21.4412 12.2972C21.6156 12.2398 21.7098 12.0232 21.6481 11.8238L20.7955 9.09274C20.7554 8.96491 20.6731 8.90749 20.6276 8.88366C20.5626 8.85008 20.4922 8.84466 20.425 8.86741L20.0567 8.98983C18.7968 9.40908 17.4068 9.18158 16.3398 8.37883L16.2228 8.29108C15.2088 7.52841 14.6053 6.29883 14.6097 5.00316L14.6118 4.69983C14.6118 4.55574 14.5436 4.46583 14.5024 4.42466C14.4634 4.38458 14.3973 4.33691 14.3042 4.33691L11.5449 4.33366C11.3759 4.33366 11.2383 4.49508 11.2373 4.69441L11.2362 4.95658C11.2308 6.27283 10.6143 7.52516 9.58734 8.30841L9.44759 8.41458C8.31767 9.27366 6.84434 9.51633 5.50967 9.06133C5.45875 9.04399 5.41109 9.04724 5.36559 9.07108C5.33092 9.08841 5.26809 9.13283 5.23775 9.23141L4.35267 12.0437C4.28875 12.2485 4.39384 12.4619 4.59209 12.5302L4.76975 12.5908ZM9.33167 23.8337C8.80517 23.8337 8.29384 23.6625 7.86267 23.3342L5.618 21.6302C4.5455 20.8177 4.30825 19.2544 5.08825 18.1462C5.49342 17.572 5.57684 16.8342 5.3385 16.1344L5.27892 15.9524C5.08067 15.3219 4.62784 14.8322 4.06775 14.6405H4.06667L3.89009 14.5787C2.57059 14.127 1.86642 12.7284 2.28567 11.3937L3.16967 8.58249C3.37009 7.94658 3.80234 7.43307 4.38734 7.13732C4.95934 6.84916 5.60609 6.80474 6.21059 7.01166C6.8595 7.23266 7.57992 7.11241 8.13567 6.68991L8.27542 6.58374C8.76942 6.20674 9.06734 5.59466 9.0695 4.94791L9.07059 4.68683C9.076 3.29583 10.1864 2.16699 11.5438 2.16699H11.5482L14.3074 2.17024C14.9596 2.17133 15.5749 2.42916 16.0386 2.89608C16.5185 3.37816 16.7807 4.02274 16.7785 4.71066L16.7763 5.01291C16.7742 5.62608 17.0548 6.20566 17.5282 6.56099L17.6441 6.64874C18.1413 7.02249 18.7892 7.12974 19.3709 6.93474L19.7382 6.81233C20.3633 6.60433 21.0284 6.65524 21.6145 6.95533C22.2158 7.26299 22.6599 7.79274 22.8636 8.44816L23.7162 11.1792C24.1278 12.4987 23.415 13.9222 22.1291 14.3523L21.9113 14.4249C21.2873 14.6351 20.7966 15.1551 20.6005 15.8181C20.4207 16.4258 20.5247 17.0942 20.8811 17.6077L21.1628 18.014C21.9363 19.132 21.6893 20.7007 20.6124 21.5121L18.3797 23.1977C17.8434 23.6029 17.1858 23.7665 16.5261 23.6614C15.8609 23.5542 15.2803 23.1858 14.8913 22.6247L14.7635 22.4383C14.3843 21.8923 13.7777 21.5608 13.1418 21.5966C12.5048 21.6139 11.9544 21.9162 11.5948 22.4275L11.3445 22.7828C10.9523 23.3386 10.3706 23.7015 9.70867 23.8055C9.58192 23.825 9.45625 23.8337 9.33167 23.8337ZM13.0001 11.3752C12.1041 11.3752 11.3751 12.1043 11.3751 13.0002C11.3751 13.8961 12.1041 14.6252 13.0001 14.6252C13.896 14.6252 14.6251 13.8961 14.6251 13.0002C14.6251 12.1043 13.896 11.3752 13.0001 11.3752ZM13.0001 16.7919C10.9092 16.7919 9.20839 15.0911 9.20839 13.0002C9.20839 10.9094 10.9092 9.20855 13.0001 9.20855C15.0909 9.20855 16.7917 10.9094 16.7917 13.0002C16.7917 15.0911 15.0909 16.7919 13.0001 16.7919Z" fill="black"/>
</g>
</svg>
