<svg width="18" height="14" viewBox="0 0 18 14" fill="none" xmlns="http://www.w3.org/2000/svg">
<path fill-rule="evenodd" clip-rule="evenodd" d="M10.9409 13.667C10.8851 13.667 10.8276 13.6645 10.7701 13.6586C10.0367 13.5861 9.46175 13.0686 9.30341 12.3395L7.06758 2.01281L4.76508 7.33115C4.63258 7.63615 4.33175 7.83365 4.00008 7.83365H1.50008C1.03925 7.83365 0.666748 7.46031 0.666748 7.00031C0.666748 6.53948 1.03925 6.16698 1.50008 6.16698H3.45341L5.54175 1.34281C5.83758 0.662813 6.48925 0.26698 7.23008 0.341147C7.96341 0.413647 8.53841 0.931147 8.69675 1.66031L10.9326 11.987L13.2351 6.66865C13.3676 6.36365 13.6676 6.16698 14.0001 6.16698H16.5001C16.9609 6.16698 17.3334 6.53948 17.3334 7.00031C17.3334 7.46031 16.9609 7.83365 16.5001 7.83365H14.5467L12.4584 12.657C12.1859 13.2845 11.6017 13.667 10.9409 13.667Z" fill="#FF3A29"/>
</svg>
