<svg width="18" height="20" viewBox="0 0 18 20" fill="none" xmlns="http://www.w3.org/2000/svg">
<path d="M18 0.210195C17.87 0.210195 17.74 0.260195 17.65 0.360195L16.86 1.1502C16.66 1.3502 16.35 1.3502 16.15 1.1502L15.36 0.360195C15.16 0.160195 14.85 0.160195 14.65 0.360195L13.86 1.1502C13.66 1.3502 13.35 1.3502 13.15 1.1502L12.36 0.360195C12.16 0.160195 11.85 0.160195 11.65 0.360195L10.86 1.1502C10.66 1.3502 10.35 1.3502 10.15 1.1502L9.36 0.360195C9.16 0.160195 8.85 0.160195 8.65 0.360195L7.86 1.1502C7.66 1.3502 7.35 1.3502 7.15 1.1502L6.35 0.350195C6.15 0.150195 5.84 0.150195 5.64 0.350195L4.85 1.1502C4.65 1.3502 4.34 1.3502 4.14 1.1502L3.35 0.350195C3.15 0.150195 2.84 0.150195 2.64 0.350195L1.85 1.1502C1.65 1.3502 1.34 1.3502 1.14 1.1502L0.35 0.350195C0.26 0.260195 0.13 0.210195 0 0.210195V19.8002C0.13 19.8002 0.26 19.7502 0.35 19.6502L1.14 18.8602C1.34 18.6602 1.65 18.6602 1.85 18.8602L2.64 19.6502C2.84 19.8502 3.15 19.8502 3.35 19.6502L4.14 18.8602C4.34 18.6602 4.65 18.6602 4.85 18.8602L5.64 19.6502C5.84 19.8502 6.15 19.8502 6.35 19.6502L7.14 18.8602C7.34 18.6602 7.65 18.6602 7.85 18.8602L8.64 19.6502C8.84 19.8502 9.15 19.8502 9.35 19.6502L10.14 18.8602C10.34 18.6602 10.65 18.6602 10.85 18.8602L11.64 19.6502C11.84 19.8502 12.15 19.8502 12.35 19.6502L13.14 18.8602C13.34 18.6602 13.65 18.6602 13.85 18.8602L14.64 19.6502C14.84 19.8502 15.15 19.8502 15.35 19.6502L16.14 18.8602C16.34 18.6602 16.65 18.6602 16.85 18.8602L17.64 19.6502C17.74 19.7502 17.87 19.8002 17.99 19.8002V0.210195H18ZM14 15.0002H4C3.45 15.0002 3 14.5502 3 14.0002C3 13.4502 3.45 13.0002 4 13.0002H14C14.55 13.0002 15 13.4502 15 14.0002C15 14.5502 14.55 15.0002 14 15.0002ZM14 11.0002H4C3.45 11.0002 3 10.5502 3 10.0002C3 9.4502 3.45 9.0002 4 9.0002H14C14.55 9.0002 15 9.4502 15 10.0002C15 10.5502 14.55 11.0002 14 11.0002ZM14 7.0002H4C3.45 7.0002 3 6.5502 3 6.0002C3 5.4502 3.45 5.0002 4 5.0002H14C14.55 5.0002 15 5.4502 15 6.0002C15 6.5502 14.55 7.0002 14 7.0002Z" fill="#CBCBE8"/>
</svg>
