<svg width="17" height="12" viewBox="0 0 17 12" fill="none" xmlns="http://www.w3.org/2000/svg">
<path d="M6.49948 11.2477C6.16715 11.5082 5.66888 11.5329 5.35906 11.2309L0.218699 6.3434L0.208729 6.33118C-0.0599198 6.00212 -0.0854412 5.50471 0.227414 5.19814L5.31665 0.2111L5.32752 0.202578C5.66038 -0.0583661 6.15971 -0.0827324 6.46943 0.220768C6.6294 0.377529 6.69683 0.597126 6.69683 0.797518C6.69683 0.997909 6.6294 1.21751 6.46943 1.37427L2.84328 4.92761L15.7929 4.92761C16.2309 4.92761 16.6016 5.28365 16.6016 5.72512C16.6016 6.16659 16.2309 6.52263 15.7929 6.52263L2.89407 6.52263L6.53013 10.0857L6.5389 10.0964C6.80755 10.4255 6.83307 10.9229 6.52022 11.2295L6.51035 11.2391L6.49948 11.2477Z" fill="#4E4E4E"/>
</svg>
